<?xml version="1.0" encoding="utf-8" standalone="no"?>
<!DOCTYPE svg PUBLIC "-//W3C//DTD SVG 1.1//EN"
  "http://www.w3.org/Graphics/SVG/1.1/DTD/svg11.dtd">
<svg xmlns:xlink="http://www.w3.org/1999/xlink" width="1166.4pt" height="662.4pt" viewBox="0 0 1166.4 662.4" xmlns="http://www.w3.org/2000/svg" version="1.1">
 <metadata>
  <rdf:RDF xmlns:dc="http://purl.org/dc/elements/1.1/" xmlns:cc="http://creativecommons.org/ns#" xmlns:rdf="http://www.w3.org/1999/02/22-rdf-syntax-ns#">
   <cc:Work>
    <dc:type rdf:resource="http://purl.org/dc/dcmitype/StillImage"/>
    <dc:date>2026-06-11T20:37:18.985762</dc:date>
    <dc:format>image/svg+xml</dc:format>
    <dc:creator>
     <cc:Agent>
      <dc:title>Matplotlib v3.10.8, https://matplotlib.org/</dc:title>
     </cc:Agent>
    </dc:creator>
   </cc:Work>
  </rdf:RDF>
 </metadata>
 <defs>
  <style type="text/css">*{stroke-linejoin: round; stroke-linecap: butt}</style>
 </defs>
 <g id="figure_1">
  <g id="patch_1">
   <path d="M 0 662.4 
L 1166.4 662.4 
L 1166.4 0 
L 0 0 
z
" style="fill: #ffffff"/>
  </g>
  <g id="axes_1">
   <g id="patch_2">
    <path d="M 199.857234 295.56 
Q 208.80288 295.56 214.394424 295.56 
" style="fill: none; stroke: #4d4d4d; stroke-width: 3; stroke-linecap: round"/>
    <path d="M 210.394424 293.56 
L 214.394424 295.56 
L 210.394424 297.56 
" style="fill: none; stroke: #4d4d4d; stroke-width: 3; stroke-linecap: round"/>
   </g>
   <g id="patch_3">
    <path d="M 349.617234 295.56 
Q 358.56288 295.56 364.154424 295.56 
" style="fill: none; stroke: #4d4d4d; stroke-width: 3; stroke-linecap: round"/>
    <path d="M 360.154424 293.56 
L 364.154424 295.56 
L 360.154424 297.56 
" style="fill: none; stroke: #4d4d4d; stroke-width: 3; stroke-linecap: round"/>
   </g>
   <g id="patch_4">
    <path d="M 499.377234 295.56 
Q 508.32288 295.56 513.914424 295.56 
" style="fill: none; stroke: #4d4d4d; stroke-width: 3; stroke-linecap: round"/>
    <path d="M 509.914424 293.56 
L 513.914424 295.56 
L 509.914424 297.56 
" style="fill: none; stroke: #4d4d4d; stroke-width: 3; stroke-linecap: round"/>
   </g>
   <g id="patch_5">
    <path d="M 649.137234 295.56 
Q 658.08288 295.56 663.674424 295.56 
" style="fill: none; stroke: #4d4d4d; stroke-width: 3; stroke-linecap: round"/>
    <path d="M 659.674424 293.56 
L 663.674424 295.56 
L 659.674424 297.56 
" style="fill: none; stroke: #4d4d4d; stroke-width: 3; stroke-linecap: round"/>
   </g>
   <g id="patch_6">
    <path d="M 798.897234 295.56 
Q 807.84288 295.56 813.434424 295.56 
" style="fill: none; stroke: #4d4d4d; stroke-width: 3; stroke-linecap: round"/>
    <path d="M 809.434424 293.56 
L 813.434424 295.56 
L 809.434424 297.56 
" style="fill: none; stroke: #4d4d4d; stroke-width: 3; stroke-linecap: round"/>
   </g>
   <g id="patch_7">
    <path d="M 948.657234 295.56 
Q 957.60288 295.56 963.194424 295.56 
" style="fill: none; stroke: #4d4d4d; stroke-width: 3; stroke-linecap: round"/>
    <path d="M 959.194424 293.56 
L 963.194424 295.56 
L 959.194424 297.56 
" style="fill: none; stroke: #4d4d4d; stroke-width: 3; stroke-linecap: round"/>
   </g>
   <g id="patch_8">
    <path d="M 76.896 477.648 
L 197.856 477.648 
Q 201.312 477.648 201.312 475.704 
L 201.312 119.304 
Q 201.312 117.36 197.856 117.36 
L 76.896 117.36 
Q 73.44 117.36 73.44 119.304 
L 73.44 475.704 
Q 73.44 477.648 76.896 477.648 
z
" clip-path="url(#pa6df362a7f)" style="fill: #e8e8e8"/>
   </g>
   <g id="patch_9">
    <path d="M 226.656 477.648 
L 347.616 477.648 
Q 351.072 477.648 351.072 475.704 
L 351.072 119.304 
Q 351.072 117.36 347.616 117.36 
L 226.656 117.36 
Q 223.2 117.36 223.2 119.304 
L 223.2 475.704 
Q 223.2 477.648 226.656 477.648 
z
" clip-path="url(#pa6df362a7f)" style="fill: #e8e8e8"/>
   </g>
   <g id="patch_10">
    <path d="M 376.416 477.648 
L 497.376 477.648 
Q 500.832 477.648 500.832 475.704 
L 500.832 119.304 
Q 500.832 117.36 497.376 117.36 
L 376.416 117.36 
Q 372.96 117.36 372.96 119.304 
L 372.96 475.704 
Q 372.96 477.648 376.416 477.648 
z
" clip-path="url(#pa6df362a7f)" style="fill: #e8e8e8"/>
   </g>
   <g id="patch_11">
    <path d="M 526.176 477.648 
L 647.136 477.648 
Q 650.592 477.648 650.592 475.704 
L 650.592 119.304 
Q 650.592 117.36 647.136 117.36 
L 526.176 117.36 
Q 522.72 117.36 522.72 119.304 
L 522.72 475.704 
Q 522.72 477.648 526.176 477.648 
z
" clip-path="url(#pa6df362a7f)" style="fill: #e8e8e8"/>
   </g>
   <g id="patch_12">
    <path d="M 675.936 477.648 
L 796.896 477.648 
Q 800.352 477.648 800.352 475.704 
L 800.352 119.304 
Q 800.352 117.36 796.896 117.36 
L 675.936 117.36 
Q 672.48 117.36 672.48 119.304 
L 672.48 475.704 
Q 672.48 477.648 675.936 477.648 
z
" clip-path="url(#pa6df362a7f)" style="fill: #e8e8e8"/>
   </g>
   <g id="patch_13">
    <path d="M 825.696 477.648 
L 946.656 477.648 
Q 950.112 477.648 950.112 475.704 
L 950.112 119.304 
Q 950.112 117.36 946.656 117.36 
L 825.696 117.36 
Q 822.24 117.36 822.24 119.304 
L 822.24 475.704 
Q 822.24 477.648 825.696 477.648 
z
" clip-path="url(#pa6df362a7f)" style="fill: #e8e8e8"/>
   </g>
   <g id="patch_14">
    <path d="M 975.456 477.648 
L 1096.416 477.648 
Q 1099.872 477.648 1099.872 475.704 
L 1099.872 119.304 
Q 1099.872 117.36 1096.416 117.36 
L 975.456 117.36 
Q 972 117.36 972 119.304 
L 972 475.704 
Q 972 477.648 975.456 477.648 
z
" clip-path="url(#pa6df362a7f)" style="fill: #e8e8e8"/>
   </g>
   <g id="patch_15">
    <path d="M 73.44 475.704 
L 194.4 475.704 
Q 197.856 475.704 197.856 473.76 
L 197.856 117.36 
Q 197.856 115.416 194.4 115.416 
L 73.44 115.416 
Q 69.984 115.416 69.984 117.36 
L 69.984 473.76 
Q 69.984 475.704 73.44 475.704 
z
" clip-path="url(#pa6df362a7f)" style="fill: #ffffff; stroke: #0f4d92; stroke-width: 2.5; stroke-linejoin: miter"/>
   </g>
   <g id="patch_16">
    <path d="M 223.2 475.704 
L 344.16 475.704 
Q 347.616 475.704 347.616 473.76 
L 347.616 117.36 
Q 347.616 115.416 344.16 115.416 
L 223.2 115.416 
Q 219.744 115.416 219.744 117.36 
L 219.744 473.76 
Q 219.744 475.704 223.2 475.704 
z
" clip-path="url(#pa6df362a7f)" style="fill: #ffffff; stroke: #3775ba; stroke-width: 2.5; stroke-linejoin: miter"/>
   </g>
   <g id="patch_17">
    <path d="M 372.96 475.704 
L 493.92 475.704 
Q 497.376 475.704 497.376 473.76 
L 497.376 117.36 
Q 497.376 115.416 493.92 115.416 
L 372.96 115.416 
Q 369.504 115.416 369.504 117.36 
L 369.504 473.76 
Q 369.504 475.704 372.96 475.704 
z
" clip-path="url(#pa6df362a7f)" style="fill: #ffffff; stroke: #42949e; stroke-width: 2.5; stroke-linejoin: miter"/>
   </g>
   <g id="patch_18">
    <path d="M 522.72 475.704 
L 643.68 475.704 
Q 647.136 475.704 647.136 473.76 
L 647.136 117.36 
Q 647.136 115.416 643.68 115.416 
L 522.72 115.416 
Q 519.264 115.416 519.264 117.36 
L 519.264 473.76 
Q 519.264 475.704 522.72 475.704 
z
" clip-path="url(#pa6df362a7f)" style="fill: #ffffff; stroke: #9a4d8e; stroke-width: 2.5; stroke-linejoin: miter"/>
   </g>
   <g id="patch_19">
    <path d="M 672.48 475.704 
L 793.44 475.704 
Q 796.896 475.704 796.896 473.76 
L 796.896 117.36 
Q 796.896 115.416 793.44 115.416 
L 672.48 115.416 
Q 669.024 115.416 669.024 117.36 
L 669.024 473.76 
Q 669.024 475.704 672.48 475.704 
z
" clip-path="url(#pa6df362a7f)" style="fill: #ffffff; stroke: #b64342; stroke-width: 2.5; stroke-linejoin: miter"/>
   </g>
   <g id="patch_20">
    <path d="M 822.24 475.704 
L 943.2 475.704 
Q 946.656 475.704 946.656 473.76 
L 946.656 117.36 
Q 946.656 115.416 943.2 115.416 
L 822.24 115.416 
Q 818.784 115.416 818.784 117.36 
L 818.784 473.76 
Q 818.784 475.704 822.24 475.704 
z
" clip-path="url(#pa6df362a7f)" style="fill: #ffffff; stroke: #e28e2c; stroke-width: 2.5; stroke-linejoin: miter"/>
   </g>
   <g id="patch_21">
    <path d="M 972 475.704 
L 1092.96 475.704 
Q 1096.416 475.704 1096.416 473.76 
L 1096.416 117.36 
Q 1096.416 115.416 1092.96 115.416 
L 972 115.416 
Q 968.544 115.416 968.544 117.36 
L 968.544 473.76 
Q 968.544 475.704 972 475.704 
z
" clip-path="url(#pa6df362a7f)" style="fill: #ffffff; stroke: #5b8fd6; stroke-width: 2.5; stroke-linejoin: miter"/>
   </g>
   <g id="text_1">
    <text style="font-weight: 700; font-size: 20px; font-family: 'Microsoft YaHei', 'SimHei', 'Arial', sans-serif; text-anchor: middle; fill: #272727" x="583.2" y="26.64" transform="rotate(-0 583.2 26.64)">论文写作全流程 Skill 调用推荐</text>
   </g>
   <g id="text_2">
    <text style="font-size: 9px; font-family: 'Microsoft YaHei', 'SimHei', 'Arial', sans-serif; text-anchor: middle; fill: #4d4d4d" x="583.2" y="59.04" transform="rotate(-0 583.2 59.04)">从选题到投稿 · 8 阶段学术工具链  |  nature-skills + ARS + Omniscale 最佳组合</text>
   </g>
   <g id="patch_22">
    <path d="M 147.439336 91.44 
Q 208.800548 91.44 267.366674 91.44 
" style="fill: none; stroke: #4d4d4d; stroke-width: 2.5; stroke-linecap: round"/>
    <path d="M 263.366674 89.44 
L 267.366674 91.44 
L 263.366674 93.44 
" style="fill: none; stroke: #4d4d4d; stroke-width: 2.5; stroke-linecap: round"/>
   </g>
   <g id="patch_23">
    <path d="M 297.199336 91.44 
Q 358.560548 91.44 417.126674 91.44 
" style="fill: none; stroke: #4d4d4d; stroke-width: 2.5; stroke-linecap: round"/>
    <path d="M 413.126674 89.44 
L 417.126674 91.44 
L 413.126674 93.44 
" style="fill: none; stroke: #4d4d4d; stroke-width: 2.5; stroke-linecap: round"/>
   </g>
   <g id="patch_24">
    <path d="M 446.959336 91.44 
Q 508.320548 91.44 566.886674 91.44 
" style="fill: none; stroke: #4d4d4d; stroke-width: 2.5; stroke-linecap: round"/>
    <path d="M 562.886674 89.44 
L 566.886674 91.44 
L 562.886674 93.44 
" style="fill: none; stroke: #4d4d4d; stroke-width: 2.5; stroke-linecap: round"/>
   </g>
   <g id="patch_25">
    <path d="M 596.719336 91.44 
Q 658.080548 91.44 716.646674 91.44 
" style="fill: none; stroke: #4d4d4d; stroke-width: 2.5; stroke-linecap: round"/>
    <path d="M 712.646674 89.44 
L 716.646674 91.44 
L 712.646674 93.44 
" style="fill: none; stroke: #4d4d4d; stroke-width: 2.5; stroke-linecap: round"/>
   </g>
   <g id="patch_26">
    <path d="M 746.479336 91.44 
Q 807.840548 91.44 866.406674 91.44 
" style="fill: none; stroke: #4d4d4d; stroke-width: 2.5; stroke-linecap: round"/>
    <path d="M 862.406674 89.44 
L 866.406674 91.44 
L 862.406674 93.44 
" style="fill: none; stroke: #4d4d4d; stroke-width: 2.5; stroke-linecap: round"/>
   </g>
   <g id="patch_27">
    <path d="M 896.239336 91.44 
Q 957.600548 91.44 1016.166674 91.44 
" style="fill: none; stroke: #4d4d4d; stroke-width: 2.5; stroke-linecap: round"/>
    <path d="M 1012.166674 89.44 
L 1016.166674 91.44 
L 1012.166674 93.44 
" style="fill: none; stroke: #4d4d4d; stroke-width: 2.5; stroke-linecap: round"/>
   </g>
   <g id="patch_28">
    <path d="M 79.2 183.132 
L 188.64 183.132 
Q 190.368 183.132 190.368 182.16 
L 190.368 123.84 
Q 190.368 122.868 188.64 122.868 
L 79.2 122.868 
Q 77.472 122.868 77.472 123.84 
L 77.472 182.16 
Q 77.472 183.132 79.2 183.132 
z
" clip-path="url(#pa6df362a7f)" style="fill: #0f4d92"/>
   </g>
   <g id="text_3">
    <text style="font-size: 7px; font-family: 'Microsoft YaHei', 'SimHei', 'Arial', sans-serif; text-anchor: start; fill: #272727" x="125.28" y="200.287734" transform="rotate(-0 125.28 200.287734)">nature-academic-search</text>
   </g>
   <g id="text_4">
    <text style="font-size: 7px; font-family: 'Microsoft YaHei', 'SimHei', 'Arial', sans-serif; text-anchor: start; fill: #272727" x="125.28" y="239.167734" transform="rotate(-0 125.28 239.167734)">nature-reader</text>
   </g>
   <g id="text_5">
    <text style="font-size: 7px; font-family: 'Microsoft YaHei', 'SimHei', 'Arial', sans-serif; text-anchor: start; fill: #272727" x="125.28" y="278.047734" transform="rotate(-0 125.28 278.047734)">deep-research</text>
   </g>
   <g id="text_6">
    <text style="font-weight: 700; font-size: 7px; font-family: 'Microsoft YaHei', 'SimHei', 'Arial', sans-serif; text-anchor: start; fill: #e53935" x="125.28" y="316.927734" transform="rotate(-0 125.28 316.927734)">ARS 深度研究</text>
   </g>
   <g id="patch_29">
    <path d="M 228.96 183.132 
L 338.4 183.132 
Q 340.128 183.132 340.128 182.16 
L 340.128 123.84 
Q 340.128 122.868 338.4 122.868 
L 228.96 122.868 
Q 227.232 122.868 227.232 123.84 
L 227.232 182.16 
Q 227.232 183.132 228.96 183.132 
z
" clip-path="url(#pa6df362a7f)" style="fill: #3775ba"/>
   </g>
   <g id="text_7">
    <text style="font-size: 7px; font-family: 'Microsoft YaHei', 'SimHei', 'Arial', sans-serif; text-anchor: start; fill: #272727" x="275.04" y="200.247266" transform="rotate(-0 275.04 200.247266)">nature-writing</text>
   </g>
   <g id="text_8">
    <text style="font-size: 7px; font-family: 'Microsoft YaHei', 'SimHei', 'Arial', sans-serif; text-anchor: start; fill: #272727" x="275.04" y="239.1475" transform="rotate(-0 275.04 239.1475)">nature-polishing</text>
   </g>
   <g id="text_9">
    <text style="font-weight: 700; font-size: 7px; font-family: 'Microsoft YaHei', 'SimHei', 'Arial', sans-serif; text-anchor: start; fill: #e53935" x="275.04" y="278.047734" transform="rotate(-0 275.04 278.047734)">ARS 学术论文</text>
   </g>
   <g id="text_10">
    <text style="font-weight: 700; font-size: 7px; font-family: 'Microsoft YaHei', 'SimHei', 'Arial', sans-serif; text-anchor: start; fill: #e53935" x="275.04" y="316.927734" transform="rotate(-0 275.04 316.927734)">写作 skill</text>
   </g>
   <g id="patch_30">
    <path d="M 378.72 183.132 
L 488.16 183.132 
Q 489.888 183.132 489.888 182.16 
L 489.888 123.84 
Q 489.888 122.868 488.16 122.868 
L 378.72 122.868 
Q 376.992 122.868 376.992 123.84 
L 376.992 182.16 
Q 376.992 183.132 378.72 183.132 
z
" clip-path="url(#pa6df362a7f)" style="fill: #42949e"/>
   </g>
   <g id="text_11">
    <text style="font-size: 7px; font-family: 'Microsoft YaHei', 'SimHei', 'Arial', sans-serif; text-anchor: start; fill: #272727" x="424.8" y="200.287734" transform="rotate(-0 424.8 200.287734)">nature-citation</text>
   </g>
   <g id="text_12">
    <text style="font-size: 7px; font-family: 'Microsoft YaHei', 'SimHei', 'Arial', sans-serif; text-anchor: start; fill: #272727" x="424.8" y="239.167734" transform="rotate(-0 424.8 239.167734)">nature-data</text>
   </g>
   <g id="text_13">
    <text style="font-weight: 700; font-size: 7px; font-family: 'Microsoft YaHei', 'SimHei', 'Arial', sans-serif; text-anchor: start; fill: #e53935" x="424.8" y="278.047734" transform="rotate(-0 424.8 278.047734)">ARS 引文验证</text>
   </g>
   <g id="patch_31">
    <path d="M 528.48 183.132 
L 637.92 183.132 
Q 639.648 183.132 639.648 182.16 
L 639.648 123.84 
Q 639.648 122.868 637.92 122.868 
L 528.48 122.868 
Q 526.752 122.868 526.752 123.84 
L 526.752 182.16 
Q 526.752 183.132 528.48 183.132 
z
" clip-path="url(#pa6df362a7f)" style="fill: #9a4d8e"/>
   </g>
   <g id="text_14">
    <text style="font-size: 7px; font-family: 'Microsoft YaHei', 'SimHei', 'Arial', sans-serif; text-anchor: start; fill: #272727" x="574.56" y="200.308516" transform="rotate(-0 574.56 200.308516)">nature-figure</text>
   </g>
   <g id="text_15">
    <text style="font-size: 7px; font-family: 'Microsoft YaHei', 'SimHei', 'Arial', sans-serif; text-anchor: start; fill: #272727" x="574.56" y="239.277109" transform="rotate(-0 574.56 239.277109)">（Python / R 后端）</text>
   </g>
   <g id="patch_32">
    <path d="M 678.24 183.132 
L 787.68 183.132 
Q 789.408 183.132 789.408 182.16 
L 789.408 123.84 
Q 789.408 122.868 787.68 122.868 
L 678.24 122.868 
Q 676.512 122.868 676.512 123.84 
L 676.512 182.16 
Q 676.512 183.132 678.24 183.132 
z
" clip-path="url(#pa6df362a7f)" style="fill: #b64342"/>
   </g>
   <g id="text_16">
    <text style="font-size: 7px; font-family: 'Microsoft YaHei', 'SimHei', 'Arial', sans-serif; text-anchor: start; fill: #272727" x="724.32" y="200.287734" transform="rotate(-0 724.32 200.287734)">nature-reviewer</text>
   </g>
   <g id="text_17">
    <text style="font-size: 7px; font-family: 'Microsoft YaHei', 'SimHei', 'Arial', sans-serif; text-anchor: start; fill: #272727" x="724.32" y="239.167734" transform="rotate(-0 724.32 239.167734)">code-review</text>
   </g>
   <g id="text_18">
    <text style="font-weight: 700; font-size: 7px; font-family: 'Microsoft YaHei', 'SimHei', 'Arial', sans-serif; text-anchor: start; fill: #e53935" x="724.32" y="278.047734" transform="rotate(-0 724.32 278.047734)">Omniscale 批判</text>
   </g>
   <g id="text_19">
    <text style="font-weight: 700; font-size: 7px; font-family: 'Microsoft YaHei', 'SimHei', 'Arial', sans-serif; text-anchor: start; fill: #e53935" x="724.32" y="316.927734" transform="rotate(-0 724.32 316.927734)">ARS 审稿人</text>
   </g>
   <g id="patch_33">
    <path d="M 828 183.132 
L 937.44 183.132 
Q 939.168 183.132 939.168 182.16 
L 939.168 123.84 
Q 939.168 122.868 937.44 122.868 
L 828 122.868 
Q 826.272 122.868 826.272 123.84 
L 826.272 182.16 
Q 826.272 183.132 828 183.132 
z
" clip-path="url(#pa6df362a7f)" style="fill: #e28e2c"/>
   </g>
   <g id="text_20">
    <text style="font-size: 7px; font-family: 'Microsoft YaHei', 'SimHei', 'Arial', sans-serif; text-anchor: start; fill: #272727" x="874.08" y="200.287734" transform="rotate(-0 874.08 200.287734)">nature-response</text>
   </g>
   <g id="text_21">
    <text style="font-size: 7px; font-family: 'Microsoft YaHei', 'SimHei', 'Arial', sans-serif; text-anchor: start; fill: #272727" x="874.08" y="239.1475" transform="rotate(-0 874.08 239.1475)">nature-polishing</text>
   </g>
   <g id="text_22">
    <text style="font-weight: 700; font-size: 7px; font-family: 'Microsoft YaHei', 'SimHei', 'Arial', sans-serif; text-anchor: start; fill: #e53935" x="874.08" y="278.047734" transform="rotate(-0 874.08 278.047734)">ARS 修订指导</text>
   </g>
   <g id="patch_34">
    <path d="M 977.76 183.132 
L 1087.2 183.132 
Q 1088.928 183.132 1088.928 182.16 
L 1088.928 123.84 
Q 1088.928 122.868 1087.2 122.868 
L 977.76 122.868 
Q 976.032 122.868 976.032 123.84 
L 976.032 182.16 
Q 976.032 183.132 977.76 183.132 
z
" clip-path="url(#pa6df362a7f)" style="fill: #5b8fd6"/>
   </g>
   <g id="text_23">
    <text style="font-size: 7px; font-family: 'Microsoft YaHei', 'SimHei', 'Arial', sans-serif; text-anchor: start; fill: #272727" x="1023.84" y="200.287734" transform="rotate(-0 1023.84 200.287734)">nature-paper2ppt</text>
   </g>
   <g id="text_24">
    <text style="font-weight: 700; font-size: 7px; font-family: 'Microsoft YaHei', 'SimHei', 'Arial', sans-serif; text-anchor: start; fill: #e53935" x="1023.84" y="239.167734" transform="rotate(-0 1023.84 239.167734)">ARS 格式转换</text>
   </g>
   <g id="text_25">
    <text style="font-size: 8px; font-family: 'Microsoft YaHei', 'SimHei', 'Arial', sans-serif; text-anchor: start; fill: #272727" x="214.56" y="579.643125" transform="rotate(-0 214.56 579.643125)">已安装（nature-skills / 内置）</text>
   </g>
   <g id="text_26">
    <text style="font-size: 8px; font-family: 'Microsoft YaHei', 'SimHei', 'Arial', sans-serif; text-anchor: start; fill: #272727" x="675.36" y="579.7875" transform="rotate(-0 675.36 579.7875)">推荐安装（ARS / Omniscale / antigravity）</text>
   </g>
   <g id="text_27">
    <text style="font-style: italic; font-size: 7.5px; font-family: 'Microsoft YaHei', 'SimHei', 'Arial', sans-serif; text-anchor: middle; fill: #4d4d4d" x="583.2" y="631.488398" transform="rotate(-0 583.2 631.488398)">已安装  |  推荐  |  每阶段可独立运行  |  零依赖开箱即用</text>
   </g>
   <g id="text_28">
    <text style="font-weight: 700; font-size: 9px; font-family: 'Microsoft YaHei', 'SimHei', 'Arial', sans-serif; fill: #ffffff" transform="translate(120.42 149.6835)">选题与</text>
    <text style="font-weight: 700; font-size: 9px; font-family: 'Microsoft YaHei', 'SimHei', 'Arial', sans-serif; fill: #ffffff" transform="translate(115.92 161.273531)">文献调研</text>
   </g>
   <g id="line2d_1">
    <defs>
     <path id="ma7388acd31" d="M 0 2.75 
C 0.729309 2.75 1.428845 2.460243 1.944544 1.944544 
C 2.460243 1.428845 2.75 0.729309 2.75 0 
C 2.75 -0.729309 2.460243 -1.428845 1.944544 -1.944544 
C 1.428845 -2.460243 0.729309 -2.75 0 -2.75 
C -0.729309 -2.75 -1.428845 -2.460243 -1.944544 -1.944544 
C -2.460243 -1.428845 -2.75 -0.729309 -2.75 0 
C -2.75 0.729309 -2.460243 1.428845 -1.944544 1.944544 
C -1.428845 2.460243 -0.729309 2.75 0 2.75 
z
" style="stroke: #ffffff; stroke-width: 0.8"/>
    </defs>
    <g clip-path="url(#pa6df362a7f)">
     <use xlink:href="#ma7388acd31" x="102.24" y="198.36" style="fill: #2e9e44; stroke: #ffffff; stroke-width: 0.8"/>
    </g>
   </g>
   <g id="line2d_2">
    <g clip-path="url(#pa6df362a7f)">
     <use xlink:href="#ma7388acd31" x="102.24" y="237.24" style="fill: #2e9e44; stroke: #ffffff; stroke-width: 0.8"/>
    </g>
   </g>
   <g id="line2d_3">
    <g clip-path="url(#pa6df362a7f)">
     <use xlink:href="#ma7388acd31" x="102.24" y="276.12" style="fill: #2e9e44; stroke: #ffffff; stroke-width: 0.8"/>
    </g>
   </g>
   <g id="line2d_4">
    <defs>
     <path id="mf2d83324cc" d="M 0 2.75 
C 0.729309 2.75 1.428845 2.460243 1.944544 1.944544 
C 2.460243 1.428845 2.75 0.729309 2.75 0 
C 2.75 -0.729309 2.460243 -1.428845 1.944544 -1.944544 
C 1.428845 -2.460243 0.729309 -2.75 0 -2.75 
C -0.729309 -2.75 -1.428845 -2.460243 -1.944544 -1.944544 
C -2.460243 -1.428845 -2.75 -0.729309 -2.75 0 
C -2.75 0.729309 -2.460243 1.428845 -1.944544 1.944544 
C -1.428845 2.460243 -0.729309 2.75 0 2.75 
z
" style="stroke: #ffffff; stroke-width: 0.8"/>
    </defs>
    <g clip-path="url(#pa6df362a7f)">
     <use xlink:href="#mf2d83324cc" x="102.24" y="315" style="fill: #e53935; stroke: #ffffff; stroke-width: 0.8"/>
    </g>
   </g>
   <g id="text_29">
    <text style="font-weight: 700; font-size: 9px; font-family: 'Microsoft YaHei', 'SimHei', 'Arial', sans-serif; fill: #ffffff" transform="translate(270.18 149.6835)">写作与</text>
    <text style="font-weight: 700; font-size: 9px; font-family: 'Microsoft YaHei', 'SimHei', 'Arial', sans-serif; fill: #ffffff" transform="translate(274.68 161.273531)">初稿</text>
   </g>
   <g id="line2d_5">
    <g clip-path="url(#pa6df362a7f)">
     <use xlink:href="#ma7388acd31" x="252" y="198.36" style="fill: #2e9e44; stroke: #ffffff; stroke-width: 0.8"/>
    </g>
   </g>
   <g id="line2d_6">
    <g clip-path="url(#pa6df362a7f)">
     <use xlink:href="#ma7388acd31" x="252" y="237.24" style="fill: #2e9e44; stroke: #ffffff; stroke-width: 0.8"/>
    </g>
   </g>
   <g id="line2d_7">
    <g clip-path="url(#pa6df362a7f)">
     <use xlink:href="#mf2d83324cc" x="252" y="276.12" style="fill: #e53935; stroke: #ffffff; stroke-width: 0.8"/>
    </g>
   </g>
   <g id="line2d_8">
    <g clip-path="url(#pa6df362a7f)">
     <use xlink:href="#mf2d83324cc" x="252" y="315" style="fill: #e53935; stroke: #ffffff; stroke-width: 0.8"/>
    </g>
   </g>
   <g id="text_30">
    <text style="font-weight: 700; font-size: 9px; font-family: 'Microsoft YaHei', 'SimHei', 'Arial', sans-serif; fill: #ffffff" transform="translate(419.94 149.6835)">引文与</text>
    <text style="font-weight: 700; font-size: 9px; font-family: 'Microsoft YaHei', 'SimHei', 'Arial', sans-serif; fill: #ffffff" transform="translate(424.44 161.273531)">数据</text>
   </g>
   <g id="line2d_9">
    <g clip-path="url(#pa6df362a7f)">
     <use xlink:href="#ma7388acd31" x="401.76" y="198.36" style="fill: #2e9e44; stroke: #ffffff; stroke-width: 0.8"/>
    </g>
   </g>
   <g id="line2d_10">
    <g clip-path="url(#pa6df362a7f)">
     <use xlink:href="#ma7388acd31" x="401.76" y="237.24" style="fill: #2e9e44; stroke: #ffffff; stroke-width: 0.8"/>
    </g>
   </g>
   <g id="line2d_11">
    <g clip-path="url(#pa6df362a7f)">
     <use xlink:href="#mf2d83324cc" x="401.76" y="276.12" style="fill: #e53935; stroke: #ffffff; stroke-width: 0.8"/>
    </g>
   </g>
   <g id="text_31">
    <text style="font-weight: 700; font-size: 9px; font-family: 'Microsoft YaHei', 'SimHei', 'Arial', sans-serif; fill: #ffffff" transform="translate(574.2 149.6835)">图表</text>
    <text style="font-weight: 700; font-size: 9px; font-family: 'Microsoft YaHei', 'SimHei', 'Arial', sans-serif; fill: #ffffff" transform="translate(574.2 161.273531)">制作</text>
   </g>
   <g id="line2d_12">
    <g clip-path="url(#pa6df362a7f)">
     <use xlink:href="#ma7388acd31" x="551.52" y="198.36" style="fill: #2e9e44; stroke: #ffffff; stroke-width: 0.8"/>
    </g>
   </g>
   <g id="line2d_13">
    <g clip-path="url(#pa6df362a7f)">
     <use xlink:href="#ma7388acd31" x="551.52" y="237.24" style="fill: #2e9e44; stroke: #ffffff; stroke-width: 0.8"/>
    </g>
   </g>
   <g id="text_32">
    <text style="font-weight: 700; font-size: 9px; font-family: 'Microsoft YaHei', 'SimHei', 'Arial', sans-serif; fill: #ffffff" transform="translate(719.46 149.6835)">审稿与</text>
    <text style="font-weight: 700; font-size: 9px; font-family: 'Microsoft YaHei', 'SimHei', 'Arial', sans-serif; fill: #ffffff" transform="translate(723.96 161.273531)">自查</text>
   </g>
   <g id="line2d_14">
    <g clip-path="url(#pa6df362a7f)">
     <use xlink:href="#ma7388acd31" x="701.28" y="198.36" style="fill: #2e9e44; stroke: #ffffff; stroke-width: 0.8"/>
    </g>
   </g>
   <g id="line2d_15">
    <g clip-path="url(#pa6df362a7f)">
     <use xlink:href="#ma7388acd31" x="701.28" y="237.24" style="fill: #2e9e44; stroke: #ffffff; stroke-width: 0.8"/>
    </g>
   </g>
   <g id="line2d_16">
    <g clip-path="url(#pa6df362a7f)">
     <use xlink:href="#mf2d83324cc" x="701.28" y="276.12" style="fill: #e53935; stroke: #ffffff; stroke-width: 0.8"/>
    </g>
   </g>
   <g id="line2d_17">
    <g clip-path="url(#pa6df362a7f)">
     <use xlink:href="#mf2d83324cc" x="701.28" y="315" style="fill: #e53935; stroke: #ffffff; stroke-width: 0.8"/>
    </g>
   </g>
   <g id="text_33">
    <text style="font-weight: 700; font-size: 9px; font-family: 'Microsoft YaHei', 'SimHei', 'Arial', sans-serif; fill: #ffffff" transform="translate(869.22 149.6835)">修改与</text>
    <text style="font-weight: 700; font-size: 9px; font-family: 'Microsoft YaHei', 'SimHei', 'Arial', sans-serif; fill: #ffffff" transform="translate(873.72 161.273531)">回复</text>
   </g>
   <g id="line2d_18">
    <g clip-path="url(#pa6df362a7f)">
     <use xlink:href="#ma7388acd31" x="851.04" y="198.36" style="fill: #2e9e44; stroke: #ffffff; stroke-width: 0.8"/>
    </g>
   </g>
   <g id="line2d_19">
    <g clip-path="url(#pa6df362a7f)">
     <use xlink:href="#ma7388acd31" x="851.04" y="237.24" style="fill: #2e9e44; stroke: #ffffff; stroke-width: 0.8"/>
    </g>
   </g>
   <g id="line2d_20">
    <g clip-path="url(#pa6df362a7f)">
     <use xlink:href="#mf2d83324cc" x="851.04" y="276.12" style="fill: #e53935; stroke: #ffffff; stroke-width: 0.8"/>
    </g>
   </g>
   <g id="text_34">
    <text style="font-weight: 700; font-size: 9px; font-family: 'Microsoft YaHei', 'SimHei', 'Arial', sans-serif; fill: #ffffff" transform="translate(1018.98 149.6835)">投稿与</text>
    <text style="font-weight: 700; font-size: 9px; font-family: 'Microsoft YaHei', 'SimHei', 'Arial', sans-serif; fill: #ffffff" transform="translate(1023.48 161.273531)">输出</text>
   </g>
   <g id="line2d_21">
    <g clip-path="url(#pa6df362a7f)">
     <use xlink:href="#ma7388acd31" x="1000.8" y="198.36" style="fill: #2e9e44; stroke: #ffffff; stroke-width: 0.8"/>
    </g>
   </g>
   <g id="line2d_22">
    <g clip-path="url(#pa6df362a7f)">
     <use xlink:href="#mf2d83324cc" x="1000.8" y="237.24" style="fill: #e53935; stroke: #ffffff; stroke-width: 0.8"/>
    </g>
   </g>
   <g id="line2d_23">
    <defs>
     <path id="m9aaa84e68b" d="M 0 4.5 
C 1.193414 4.5 2.338109 4.025852 3.181981 3.181981 
C 4.025852 2.338109 4.5 1.193414 4.5 0 
C 4.5 -1.193414 4.025852 -2.338109 3.181981 -3.181981 
C 2.338109 -4.025852 1.193414 -4.5 0 -4.5 
C -1.193414 -4.5 -2.338109 -4.025852 -3.181981 -3.181981 
C -4.025852 -2.338109 -4.5 -1.193414 -4.5 0 
C -4.5 1.193414 -4.025852 2.338109 -3.181981 3.181981 
C -2.338109 4.025852 -1.193414 4.5 0 4.5 
z
" style="stroke: #ffffff"/>
    </defs>
    <g clip-path="url(#pa6df362a7f)">
     <use xlink:href="#m9aaa84e68b" x="180" y="577.44" style="fill: #2e9e44; stroke: #ffffff"/>
    </g>
   </g>
   <g id="line2d_24">
    <defs>
     <path id="m7586d3a348" d="M 0 4.5 
C 1.193414 4.5 2.338109 4.025852 3.181981 3.181981 
C 4.025852 2.338109 4.5 1.193414 4.5 0 
C 4.5 -1.193414 4.025852 -2.338109 3.181981 -3.181981 
C 2.338109 -4.025852 1.193414 -4.5 0 -4.5 
C -1.193414 -4.5 -2.338109 -4.025852 -3.181981 -3.181981 
C -4.025852 -2.338109 -4.5 -1.193414 -4.5 0 
C -4.5 1.193414 -4.025852 2.338109 -3.181981 3.181981 
C -2.338109 4.025852 -1.193414 4.5 0 4.5 
z
" style="stroke: #ffffff"/>
    </defs>
    <g clip-path="url(#pa6df362a7f)">
     <use xlink:href="#m7586d3a348" x="640.8" y="577.44" style="fill: #e53935; stroke: #ffffff"/>
    </g>
   </g>
   <g id="line2d_25">
    <defs>
     <path id="m2c563a1f0c" d="M 0 3 
C 0.795609 3 1.55874 2.683901 2.12132 2.12132 
C 2.683901 1.55874 3 0.795609 3 0 
C 3 -0.795609 2.683901 -1.55874 2.12132 -2.12132 
C 1.55874 -2.683901 0.795609 -3 0 -3 
C -0.795609 -3 -1.55874 -2.683901 -2.12132 -2.12132 
C -2.683901 -1.55874 -3 -0.795609 -3 0 
C -3 0.795609 -2.683901 1.55874 -2.12132 2.12132 
C -1.55874 2.683901 -0.795609 3 0 3 
z
" style="stroke: #ffffff; stroke-width: 0.8"/>
    </defs>
    <g clip-path="url(#pa6df362a7f)">
     <use xlink:href="#m2c563a1f0c" x="421.92" y="629.28" style="fill: #2e9e44; stroke: #ffffff; stroke-width: 0.8"/>
    </g>
   </g>
   <g id="line2d_26">
    <defs>
     <path id="mab76e10553" d="M 0 3 
C 0.795609 3 1.55874 2.683901 2.12132 2.12132 
C 2.683901 1.55874 3 0.795609 3 0 
C 3 -0.795609 2.683901 -1.55874 2.12132 -2.12132 
C 1.55874 -2.683901 0.795609 -3 0 -3 
C -0.795609 -3 -1.55874 -2.683901 -2.12132 -2.12132 
C -2.683901 -1.55874 -3 -0.795609 -3 0 
C -3 0.795609 -2.683901 1.55874 -2.12132 2.12132 
C -1.55874 2.683901 -0.795609 3 0 3 
z
" style="stroke: #ffffff; stroke-width: 0.8"/>
    </defs>
    <g clip-path="url(#pa6df362a7f)">
     <use xlink:href="#mab76e10553" x="617.76" y="629.28" style="fill: #e53935; stroke: #ffffff; stroke-width: 0.8"/>
    </g>
   </g>
   <g id="line2d_27">
    <defs>
     <path id="m7536fee074" d="M 0 7 
C 1.856422 7 3.637059 6.262436 4.949747 4.949747 
C 6.262436 3.637059 7 1.856422 7 0 
C 7 -1.856422 6.262436 -3.637059 4.949747 -4.949747 
C 3.637059 -6.262436 1.856422 -7 0 -7 
C -1.856422 -7 -3.637059 -6.262436 -4.949747 -4.949747 
C -6.262436 -3.637059 -7 -1.856422 -7 0 
C -7 1.856422 -6.262436 3.637059 -4.949747 4.949747 
C -3.637059 6.262436 -1.856422 7 0 7 
z
" style="stroke: #ffffff; stroke-width: 2"/>
    </defs>
    <g clip-path="url(#pa6df362a7f)">
     <use xlink:href="#m7536fee074" x="133.92" y="91.44" style="fill: #0f4d92; stroke: #ffffff; stroke-width: 2"/>
    </g>
   </g>
   <g id="line2d_28">
    <defs>
     <path id="mcda9790e57" d="M 0 7 
C 1.856422 7 3.637059 6.262436 4.949747 4.949747 
C 6.262436 3.637059 7 1.856422 7 0 
C 7 -1.856422 6.262436 -3.637059 4.949747 -4.949747 
C 3.637059 -6.262436 1.856422 -7 0 -7 
C -1.856422 -7 -3.637059 -6.262436 -4.949747 -4.949747 
C -6.262436 -3.637059 -7 -1.856422 -7 0 
C -7 1.856422 -6.262436 3.637059 -4.949747 4.949747 
C -3.637059 6.262436 -1.856422 7 0 7 
z
" style="stroke: #ffffff; stroke-width: 2"/>
    </defs>
    <g clip-path="url(#pa6df362a7f)">
     <use xlink:href="#mcda9790e57" x="283.68" y="91.44" style="fill: #3775ba; stroke: #ffffff; stroke-width: 2"/>
    </g>
   </g>
   <g id="line2d_29">
    <defs>
     <path id="m2d5f336cbf" d="M 0 7 
C 1.856422 7 3.637059 6.262436 4.949747 4.949747 
C 6.262436 3.637059 7 1.856422 7 0 
C 7 -1.856422 6.262436 -3.637059 4.949747 -4.949747 
C 3.637059 -6.262436 1.856422 -7 0 -7 
C -1.856422 -7 -3.637059 -6.262436 -4.949747 -4.949747 
C -6.262436 -3.637059 -7 -1.856422 -7 0 
C -7 1.856422 -6.262436 3.637059 -4.949747 4.949747 
C -3.637059 6.262436 -1.856422 7 0 7 
z
" style="stroke: #ffffff; stroke-width: 2"/>
    </defs>
    <g clip-path="url(#pa6df362a7f)">
     <use xlink:href="#m2d5f336cbf" x="433.44" y="91.44" style="fill: #42949e; stroke: #ffffff; stroke-width: 2"/>
    </g>
   </g>
   <g id="line2d_30">
    <defs>
     <path id="md2f131aa27" d="M 0 7 
C 1.856422 7 3.637059 6.262436 4.949747 4.949747 
C 6.262436 3.637059 7 1.856422 7 0 
C 7 -1.856422 6.262436 -3.637059 4.949747 -4.949747 
C 3.637059 -6.262436 1.856422 -7 0 -7 
C -1.856422 -7 -3.637059 -6.262436 -4.949747 -4.949747 
C -6.262436 -3.637059 -7 -1.856422 -7 0 
C -7 1.856422 -6.262436 3.637059 -4.949747 4.949747 
C -3.637059 6.262436 -1.856422 7 0 7 
z
" style="stroke: #ffffff; stroke-width: 2"/>
    </defs>
    <g clip-path="url(#pa6df362a7f)">
     <use xlink:href="#md2f131aa27" x="583.2" y="91.44" style="fill: #9a4d8e; stroke: #ffffff; stroke-width: 2"/>
    </g>
   </g>
   <g id="line2d_31">
    <defs>
     <path id="m5db0e878bd" d="M 0 7 
C 1.856422 7 3.637059 6.262436 4.949747 4.949747 
C 6.262436 3.637059 7 1.856422 7 0 
C 7 -1.856422 6.262436 -3.637059 4.949747 -4.949747 
C 3.637059 -6.262436 1.856422 -7 0 -7 
C -1.856422 -7 -3.637059 -6.262436 -4.949747 -4.949747 
C -6.262436 -3.637059 -7 -1.856422 -7 0 
C -7 1.856422 -6.262436 3.637059 -4.949747 4.949747 
C -3.637059 6.262436 -1.856422 7 0 7 
z
" style="stroke: #ffffff; stroke-width: 2"/>
    </defs>
    <g clip-path="url(#pa6df362a7f)">
     <use xlink:href="#m5db0e878bd" x="732.96" y="91.44" style="fill: #b64342; stroke: #ffffff; stroke-width: 2"/>
    </g>
   </g>
   <g id="line2d_32">
    <defs>
     <path id="mc537f5d0d8" d="M 0 7 
C 1.856422 7 3.637059 6.262436 4.949747 4.949747 
C 6.262436 3.637059 7 1.856422 7 0 
C 7 -1.856422 6.262436 -3.637059 4.949747 -4.949747 
C 3.637059 -6.262436 1.856422 -7 0 -7 
C -1.856422 -7 -3.637059 -6.262436 -4.949747 -4.949747 
C -6.262436 -3.637059 -7 -1.856422 -7 0 
C -7 1.856422 -6.262436 3.637059 -4.949747 4.949747 
C -3.637059 6.262436 -1.856422 7 0 7 
z
" style="stroke: #ffffff; stroke-width: 2"/>
    </defs>
    <g clip-path="url(#pa6df362a7f)">
     <use xlink:href="#mc537f5d0d8" x="882.72" y="91.44" style="fill: #e28e2c; stroke: #ffffff; stroke-width: 2"/>
    </g>
   </g>
   <g id="line2d_33">
    <defs>
     <path id="m8c44d5dbde" d="M 0 7 
C 1.856422 7 3.637059 6.262436 4.949747 4.949747 
C 6.262436 3.637059 7 1.856422 7 0 
C 7 -1.856422 6.262436 -3.637059 4.949747 -4.949747 
C 3.637059 -6.262436 1.856422 -7 0 -7 
C -1.856422 -7 -3.637059 -6.262436 -4.949747 -4.949747 
C -6.262436 -3.637059 -7 -1.856422 -7 0 
C -7 1.856422 -6.262436 3.637059 -4.949747 4.949747 
C -3.637059 6.262436 -1.856422 7 0 7 
z
" style="stroke: #ffffff; stroke-width: 2"/>
    </defs>
    <g clip-path="url(#pa6df362a7f)">
     <use xlink:href="#m8c44d5dbde" x="1032.48" y="91.44" style="fill: #5b8fd6; stroke: #ffffff; stroke-width: 2"/>
    </g>
   </g>
   <g id="text_35">
    <text style="font-weight: 700; font-size: 8px; font-family: 'Microsoft YaHei', 'SimHei', 'Arial', sans-serif; text-anchor: middle; fill: #ffffff" x="133.92" y="93.643125" transform="rotate(-0 133.92 93.643125)">01</text>
   </g>
   <g id="text_36">
    <text style="font-weight: 700; font-size: 8px; font-family: 'Microsoft YaHei', 'SimHei', 'Arial', sans-serif; text-anchor: middle; fill: #ffffff" x="283.68" y="93.643125" transform="rotate(-0 283.68 93.643125)">02</text>
   </g>
   <g id="text_37">
    <text style="font-weight: 700; font-size: 8px; font-family: 'Microsoft YaHei', 'SimHei', 'Arial', sans-serif; text-anchor: middle; fill: #ffffff" x="433.44" y="93.643125" transform="rotate(-0 433.44 93.643125)">03</text>
   </g>
   <g id="text_38">
    <text style="font-weight: 700; font-size: 8px; font-family: 'Microsoft YaHei', 'SimHei', 'Arial', sans-serif; text-anchor: middle; fill: #ffffff" x="583.2" y="93.643125" transform="rotate(-0 583.2 93.643125)">04</text>
   </g>
   <g id="text_39">
    <text style="font-weight: 700; font-size: 8px; font-family: 'Microsoft YaHei', 'SimHei', 'Arial', sans-serif; text-anchor: middle; fill: #ffffff" x="732.96" y="93.643125" transform="rotate(-0 732.96 93.643125)">05</text>
   </g>
   <g id="text_40">
    <text style="font-weight: 700; font-size: 8px; font-family: 'Microsoft YaHei', 'SimHei', 'Arial', sans-serif; text-anchor: middle; fill: #ffffff" x="882.72" y="93.643125" transform="rotate(-0 882.72 93.643125)">06</text>
   </g>
   <g id="text_41">
    <text style="font-weight: 700; font-size: 8px; font-family: 'Microsoft YaHei', 'SimHei', 'Arial', sans-serif; text-anchor: middle; fill: #ffffff" x="1032.48" y="93.643125" transform="rotate(-0 1032.48 93.643125)">07</text>
   </g>
  </g>
 </g>
 <defs>
  <clipPath id="pa6df362a7f">
   <rect x="7.2" y="7.2" width="1152" height="648"/>
  </clipPath>
 </defs>
</svg>
